<svg width="36" height="36" viewBox="0 0 36 36" fill="none" xmlns="http://www.w3.org/2000/svg">
<path d="M18 3C9.72 3 3 9.72 3 18C3 26.28 9.72 33 18 33C26.28 33 33 26.28 33 18C33 9.72 26.28 3 18 3ZM18 30C11.385 30 6 24.615 6 18C6 11.385 11.385 6 18 6C24.615 6 30 11.385 30 18C30 24.615 24.615 30 18 30ZM24.255 22.14L22.605 20.49C23.67 18.495 23.4 15.975 21.72 14.295C21.2331 13.8041 20.6535 13.4147 20.0149 13.1495C19.3764 12.8842 18.6915 12.7485 18 12.75C17.955 12.75 17.91 12.765 17.865 12.765L19.5 14.4L17.91 15.99L13.665 11.745L17.91 7.5L19.5 9.09L18.06 10.53C19.965 10.545 21.855 11.25 23.31 12.69C25.86 15.255 26.175 19.23 24.255 22.14V22.14ZM22.335 24.255L18.09 28.5L16.5 26.91L17.925 25.485C15.9647 25.4697 14.0894 24.6829 12.705 23.295C11.4841 22.0728 10.7219 20.4669 10.547 18.7482C10.3721 17.0295 10.7953 15.3031 11.745 13.86L13.395 15.51C12.33 17.505 12.6 20.025 14.28 21.705C15.33 22.755 16.725 23.265 18.12 23.22L16.5 21.6L18.09 20.01L22.335 24.255V24.255Z" fill="#3AA9E1"/>
</svg>
