<svg width="235" height="55" viewBox="0 0 235 55" fill="none" xmlns="http://www.w3.org/2000/svg">
<path d="M92.5297 25.3622H89.8734C89.7977 24.9266 89.658 24.5407 89.4544 24.2045C89.2508 23.8636 88.9975 23.5748 88.6944 23.3381C88.3914 23.1013 88.0458 22.9238 87.6575 22.8054C87.274 22.6823 86.8597 22.6207 86.4146 22.6207C85.6239 22.6207 84.9231 22.8196 84.3123 23.2173C83.7015 23.6103 83.2233 24.188 82.8777 24.9503C82.532 25.7079 82.3592 26.6335 82.3592 27.7273C82.3592 28.84 82.532 29.7775 82.8777 30.5398C83.228 31.2973 83.7063 31.8703 84.3123 32.2585C84.9231 32.642 85.6215 32.8338 86.4075 32.8338C86.8431 32.8338 87.2503 32.777 87.6291 32.6634C88.0126 32.545 88.3559 32.3722 88.6589 32.1449C88.9667 31.9176 89.2247 31.6383 89.4331 31.3068C89.6461 30.9754 89.7929 30.5966 89.8734 30.1705L92.5297 30.1847C92.4302 30.8759 92.2148 31.5246 91.8834 32.1307C91.5566 32.7367 91.1281 33.2718 90.5978 33.7358C90.0675 34.1951 89.4473 34.5549 88.737 34.8153C88.0268 35.071 87.2385 35.1989 86.372 35.1989C85.0936 35.1989 83.9525 34.9029 82.9487 34.3111C81.9449 33.7192 81.1542 32.8646 80.5765 31.7472C79.9989 30.6297 79.7101 29.2898 79.7101 27.7273C79.7101 26.16 80.0012 24.8201 80.5836 23.7074C81.166 22.59 81.9591 21.7353 82.9629 21.1435C83.9667 20.5516 85.103 20.2557 86.372 20.2557C87.1816 20.2557 87.9345 20.3693 88.6305 20.5966C89.3265 20.8239 89.9468 21.1577 90.4913 21.598C91.0358 22.0336 91.4833 22.5687 91.8336 23.2031C92.1887 23.8329 92.4208 24.5526 92.5297 25.3622ZM96.6348 35H93.8223L98.943 20.4545H102.196L107.324 35H104.511L100.626 23.4375H100.513L96.6348 35ZM96.7271 29.2969H104.398V31.4134H96.7271V29.2969ZM109.24 35V20.4545H114.694C115.811 20.4545 116.749 20.6487 117.507 21.0369C118.269 21.4252 118.844 21.9697 119.232 22.6705C119.625 23.3665 119.822 24.1785 119.822 25.1065C119.822 26.0393 119.623 26.849 119.225 27.5355C118.832 28.2173 118.252 28.7453 117.485 29.1193C116.718 29.4886 115.776 29.6733 114.659 29.6733H110.774V27.4858H114.303C114.957 27.4858 115.492 27.3958 115.909 27.2159C116.325 27.0312 116.633 26.7637 116.832 26.4134C117.035 26.0582 117.137 25.6226 117.137 25.1065C117.137 24.5904 117.035 24.1501 116.832 23.7855C116.628 23.4162 116.318 23.1368 115.901 22.9474C115.485 22.7533 114.947 22.6562 114.289 22.6562H111.874V35H109.24ZM116.754 28.4091L120.355 35H117.414L113.877 28.4091H116.754ZM127.176 35H122.247V20.4545H127.276C128.72 20.4545 129.96 20.7457 130.997 21.3281C132.039 21.9058 132.839 22.7367 133.398 23.821C133.957 24.9053 134.236 26.2027 134.236 27.7131C134.236 29.2282 133.954 30.5303 133.391 31.6193C132.832 32.7083 132.025 33.544 130.969 34.1264C129.918 34.7088 128.654 35 127.176 35ZM124.882 32.7202H127.048C128.062 32.7202 128.907 32.5355 129.584 32.1662C130.261 31.7921 130.77 31.2358 131.111 30.4972C131.452 29.7538 131.622 28.8258 131.622 27.7131C131.622 26.6004 131.452 25.6771 131.111 24.9432C130.77 24.2045 130.266 23.6529 129.598 23.2884C128.935 22.919 128.111 22.7344 127.127 22.7344H124.882V32.7202ZM154.151 25.3622H151.495C151.419 24.9266 151.279 24.5407 151.075 24.2045C150.872 23.8636 150.619 23.5748 150.316 23.3381C150.012 23.1013 149.667 22.9238 149.279 22.8054C148.895 22.6823 148.481 22.6207 148.036 22.6207C147.245 22.6207 146.544 22.8196 145.933 23.2173C145.323 23.6103 144.844 24.188 144.499 24.9503C144.153 25.7079 143.98 26.6335 143.98 27.7273C143.98 28.84 144.153 29.7775 144.499 30.5398C144.849 31.2973 145.327 31.8703 145.933 32.2585C146.544 32.642 147.243 32.8338 148.029 32.8338C148.464 32.8338 148.871 32.777 149.25 32.6634C149.634 32.545 149.977 32.3722 150.28 32.1449C150.588 31.9176 150.846 31.6383 151.054 31.3068C151.267 30.9754 151.414 30.5966 151.495 30.1705L154.151 30.1847C154.051 30.8759 153.836 31.5246 153.504 32.1307C153.178 32.7367 152.749 33.2718 152.219 33.7358C151.689 34.1951 151.068 34.5549 150.358 34.8153C149.648 35.071 148.86 35.1989 147.993 35.1989C146.715 35.1989 145.574 34.9029 144.57 34.3111C143.566 33.7192 142.775 32.8646 142.198 31.7472C141.62 30.6297 141.331 29.2898 141.331 27.7273C141.331 26.16 141.622 24.8201 142.205 23.7074C142.787 22.59 143.58 21.7353 144.584 21.1435C145.588 20.5516 146.724 20.2557 147.993 20.2557C148.803 20.2557 149.556 20.3693 150.252 20.5966C150.948 20.8239 151.568 21.1577 152.112 21.598C152.657 22.0336 153.104 22.5687 153.455 23.2031C153.81 23.8329 154.042 24.5526 154.151 25.3622ZM156.564 35V20.4545H162.018C163.136 20.4545 164.073 20.6487 164.831 21.0369C165.593 21.4252 166.168 21.9697 166.557 22.6705C166.95 23.3665 167.146 24.1785 167.146 25.1065C167.146 26.0393 166.947 26.849 166.55 27.5355C166.157 28.2173 165.577 28.7453 164.809 29.1193C164.042 29.4886 163.1 29.6733 161.983 29.6733H158.098V27.4858H161.628C162.281 27.4858 162.816 27.3958 163.233 27.2159C163.649 27.0312 163.957 26.7637 164.156 26.4134C164.36 26.0582 164.461 25.6226 164.461 25.1065C164.461 24.5904 164.36 24.1501 164.156 23.7855C163.952 23.4162 163.642 23.1368 163.226 22.9474C162.809 22.7533 162.272 22.6562 161.613 22.6562H159.199V35H156.564ZM164.078 28.4091L167.679 35H164.738L161.202 28.4091H164.078ZM169.572 35V20.4545H179.032V22.6634H172.207V26.6122H178.542V28.821H172.207V32.7912H179.089V35H169.572ZM183.588 35H180.775L185.896 20.4545H189.149L194.277 35H191.464L187.579 23.4375H187.466L183.588 35ZM183.68 29.2969H191.351V31.4134H183.68V29.2969ZM193.796 22.6634V20.4545H205.401V22.6634H200.905V35H198.291V22.6634H193.796ZM219.991 27.7273C219.991 29.2945 219.697 30.6368 219.11 31.7543C218.528 32.867 217.732 33.7192 216.724 34.3111C215.72 34.9029 214.581 35.1989 213.307 35.1989C212.034 35.1989 210.893 34.9029 209.884 34.3111C208.88 33.7145 208.085 32.8598 207.498 31.7472C206.915 30.6297 206.624 29.2898 206.624 27.7273C206.624 26.16 206.915 24.8201 207.498 23.7074C208.085 22.59 208.88 21.7353 209.884 21.1435C210.893 20.5516 212.034 20.2557 213.307 20.2557C214.581 20.2557 215.72 20.5516 216.724 21.1435C217.732 21.7353 218.528 22.59 219.11 23.7074C219.697 24.8201 219.991 26.16 219.991 27.7273ZM217.341 27.7273C217.341 26.6241 217.169 25.6937 216.823 24.9361C216.482 24.1738 216.009 23.5985 215.403 23.2102C214.796 22.8172 214.098 22.6207 213.307 22.6207C212.517 22.6207 211.818 22.8172 211.212 23.2102C210.606 23.5985 210.13 24.1738 209.785 24.9361C209.444 25.6937 209.273 26.6241 209.273 27.7273C209.273 28.8305 209.444 29.7633 209.785 30.5256C210.13 31.2831 210.606 31.8584 211.212 32.2514C211.818 32.6397 212.517 32.8338 213.307 32.8338C214.098 32.8338 214.796 32.6397 215.403 32.2514C216.009 31.8584 216.482 31.2831 216.823 30.5256C217.169 29.7633 217.341 28.8305 217.341 27.7273ZM222.482 35V20.4545H227.936C229.054 20.4545 229.991 20.6487 230.749 21.0369C231.511 21.4252 232.086 21.9697 232.475 22.6705C232.868 23.3665 233.064 24.1785 233.064 25.1065C233.064 26.0393 232.865 26.849 232.468 27.5355C232.075 28.2173 231.495 28.7453 230.727 29.1193C229.96 29.4886 229.018 29.6733 227.901 29.6733H224.016V27.4858H227.546C228.199 27.4858 228.734 27.3958 229.151 27.2159C229.567 27.0312 229.875 26.7637 230.074 26.4134C230.278 26.0582 230.379 25.6226 230.379 25.1065C230.379 24.5904 230.278 24.1501 230.074 23.7855C229.87 23.4162 229.56 23.1368 229.144 22.9474C228.727 22.7533 228.19 22.6562 227.531 22.6562H225.117V35H222.482ZM229.996 28.4091L233.597 35H230.656L227.12 28.4091H229.996Z" fill="#19242D"/>
<path fill-rule="evenodd" clip-rule="evenodd" d="M14 0C6.26801 0 0 6.26801 0 14V41C0 48.732 6.26803 55 14 55H40.417C47.4339 55 53.2451 49.8378 54.26 43.1039C52.3239 44.1155 50.1217 44.6875 47.786 44.6875H24.77C17.038 44.6875 10.77 38.4195 10.77 30.6875V24.3125C10.77 16.5805 17.0381 10.3125 24.77 10.3125H47.786C50.1217 10.3125 52.3239 10.8845 54.26 11.8961C53.2451 5.16222 47.4339 0 40.417 0H14Z" fill="#3AA9E1"/>
<path fill-rule="evenodd" clip-rule="evenodd" d="M30.4628 14.8958C23.3435 14.8958 17.5721 20.6672 17.5721 27.7865C17.5721 34.9057 23.3435 40.6771 30.4628 40.6771H42.1219C47.2963 40.6771 51.7587 37.6283 53.8106 33.2291C53.8035 33.2291 53.7965 33.2292 53.7894 33.2292H30.1034C26.9393 33.2292 24.3743 30.6641 24.3743 27.5C24.3743 24.3359 26.9393 21.7708 30.1034 21.7708H53.5257C51.3644 17.6821 47.0685 14.8958 42.1219 14.8958H30.4628Z" fill="#3AA9E1"/>
</svg>
